<svg width="64pt" height="64pt" version="1.0" viewBox="0 0 359 359" xmlns="http://www.w3.org/2000/svg">
    <g transform="translate(0 359) scale(.1 -.1)">
        <path d="m1620 3543c-266-28-556-134-785-288-399-267-661-661-757-1137-19-96-23-144-23-328 0-185 3-231 23-328 146-721 683-1259 1398-1403 137-27 401-37 541-20 766 94 1370 657 1525 1423 20 97 23 143 23 328s-3 231-23 328c-152 753-740 1310-1493 1417-94 13-336 18-429 8zm408-184c176-21 377-87 547-180 90-49 271-176 263-185-11-11-2523-701-2526-693-5 13 56 158 103 244 109 201 292 408 475 537 117 83 303 177 430 216 239 75 444 93 708 61zm784-603c-20-18-368-313-772-656-404-342-743-631-753-640-18-16-10-40 212-630 127-337 231-614 231-616 0-9-92-3-175 11-447 73-830 324-1077 705-181 278-272 622-251 942l6 98 424-216c273-139 429-213 441-209 9 3 43 29 75 58l57 52-432 222c-244 125-433 227-433 235 0 18 2455 699 2472 686 8-7 1-19-25-42zm162-114c8-14-1061-2327-1077-2330-8-2-17 3-19 10-163 425-399 1061-396 1068 4 11 1470 1259 1480 1260 4 0 9-4 12-8zm266-167c175-364 203-782 78-1175-152-475-539-863-1016-1019-100-33-218-58-228-49-3 4 241 540 542 1193 496 1077 549 1186 562 1169 7-11 35-64 62-119z"/>
    </g>
</svg>